<svg xmlns="http://www.w3.org/2000/svg" viewBox="0 0 512 512">
  <defs>
    <linearGradient id="tile" x1="72" y1="44" x2="438" y2="474" gradientUnits="userSpaceOnUse">
      <stop stop-color="#242a22"/>
      <stop offset="1" stop-color="#151814"/>
    </linearGradient>
    <linearGradient id="accent" x1="112" y1="104" x2="404" y2="414" gradientUnits="userSpaceOnUse">
      <stop stop-color="#c9ff7e"/>
      <stop offset="1" stop-color="#94d83f"/>
    </linearGradient>
    <filter id="shadow" x="120" y="142" width="286" height="250" filterUnits="userSpaceOnUse">
      <feDropShadow dx="0" dy="12" stdDeviation="12" flood-color="#090b08" flood-opacity=".34"/>
    </filter>
  </defs>

  <rect width="512" height="512" rx="116" fill="url(#tile)"/>
  <path d="M116 198v-43c0-22 17-39 39-39h43M314 116h43c22 0 39 17 39 39v43M396 314v43c0 22-17 39-39 39h-43M198 396h-43c-22 0-39-17-39-39v-43"
        fill="none" stroke="url(#accent)" stroke-width="34" stroke-linecap="round"/>

  <g filter="url(#shadow)">
    <rect x="190" y="166" width="166" height="126" rx="22" fill="#76806f" opacity=".48"/>
    <rect x="172" y="184" width="180" height="136" rx="23" fill="#b5beb0"/>
    <rect x="154" y="204" width="194" height="146" rx="25" fill="#f7f8f3"/>
  </g>

  <circle cx="205" cy="250" r="18" fill="#a8e951"/>
  <path d="M176 321 222 276l31 29 25-23 48 39H176Z" fill="#283025"/>
  <path d="m222 276 31 29 25-23 20 16" fill="none" stroke="#8bc83e" stroke-width="8" stroke-linecap="round" stroke-linejoin="round"/>
</svg>
